# xmcd
#
# Track frame offsets: 
#        150
#        19815
#        35865
#        64537
#        78965
#        90415
#        108217
#        121310
#        138995
#        150632
#        160152
#
# Disc length: 2385 seconds
#
# Revision: 0
# Processed by: cddbd v1.4PL0 Copyright (c) Steve Scherf et al.
# Submitted via: ExactAudioCopy v0.90b4
#
DISCID=7f094f0b
DTITLE=Various Artist - Lost Blues Masters
DYEAR=1900
DGENRE=Blues
TTITLE0=December 7, 1941 (Lightnin' Hopkins)
TTITLE1=Mojo Hand (Lightnin' Hopkins)
TTITLE2=Tell Me Where You Stayed Last Night (Billy Biser)
TTITLE3=Shake That Thing (Lightnin' Hopkins)
TTITLE4=Lien On Your Body (Mortgage On Your Soul)  (Calvin 'Loudmouth'
TTITLE4=Johnson and Johnny Winter)
TTITLE5=Please Come Back To Me (T-Bone Walker)
TTITLE6=Treat Your Daddy Well (T-Bone Walker)
TTITLE7=Trouble In Mind (Clifton Chenier)
TTITLE8=Be My Chauffer (Clifton Chenier)
TTITLE9=Down And Out (Calvin 'Loudmouth' Johnson and Johnny Winter)
TTITLE10=You Promised Me (Billy Biser)
EXTD=
EXTT0=
EXTT1=
EXTT2=
EXTT3=
EXTT4=
EXTT5=
EXTT6=
EXTT7=
EXTT8=
EXTT9=
EXTT10=
PLAYORDER=
